<?xml version="1.0" encoding="utf-8"?>
<!-- Generator: Adobe Illustrator 21.1.0, SVG Export Plug-In . SVG Version: 6.00 Build 0)  -->
<svg version="1.1" id="Layer_1" xmlns="http://www.w3.org/2000/svg" xmlns:xlink="http://www.w3.org/1999/xlink" x="0px" y="0px"
	 viewBox="0 0 37 37" style="enable-background:new 0 0 37 37;" xml:space="preserve">
<style type="text/css">
	.st0{fill:#DA3F7B;}
</style>
<g>
	<path class="st0" d="M10.1,19.4c-0.9-0.9-1.8-1.8-2.6-2.7c5.9-5.9,16-5.6,21.4-0.1c-0.9,0.9-1.7,1.7-2.7,2.7
		c-2.2-2-4.9-3.1-8.1-3.1C15.1,16.2,12.4,17.3,10.1,19.4z"/>
	<path class="st0" d="M22,27.5c0,2.1-1.7,3.8-3.8,3.8s-3.8-1.7-3.8-3.9c0-2.1,1.7-3.8,3.8-3.8C20.3,23.7,22,25.4,22,27.5z"/>
	<path class="st0" d="M14,23.4c-0.9-0.9-1.7-1.7-2.5-2.6c3.2-3.5,9.7-3.7,13.2,0c-0.8,0.8-1.7,1.6-2.5,2.5c-1.1-1-2.5-1.6-4.1-1.5
		C16.6,21.7,15.2,22.3,14,23.4z"/>
	<path class="st0" d="M28.4,9.4C22,5.7,13.7,5.7,7.2,9.9c-1.2,0.7-2.4,1.6-3.5,2.6c-0.1,0.1-0.3,0.2-0.4,0.3v0.1
		c0.9,0.9,1.8,1.7,2.7,2.6C12.8,9,23.8,9,30.4,15.4c0.9-0.9,1.7-1.8,2.6-2.7C31.9,11.5,30.2,10.3,28.4,9.4z"/>
</g>
</svg>
