<?xml version="1.0" encoding="utf-8"?>
<!-- Generator: Adobe Illustrator 21.1.0, SVG Export Plug-In . SVG Version: 6.00 Build 0)  -->
<svg version="1.1" id="Layer_1" xmlns="http://www.w3.org/2000/svg" xmlns:xlink="http://www.w3.org/1999/xlink" x="0px" y="0px"
	 viewBox="0 0 37 37" style="enable-background:new 0 0 37 37;" xml:space="preserve">
<style type="text/css">
	.st0{fill:#DA3F7B;}
</style>
<g>
	<path class="st0" d="M3.9,22.4c0-3.5,0-7.1,0-10.6c0.7-2.4,2.3-2.9,4.4-2.9c7.4,0.1,14.8,0,22.2,0c2.6,0,4,1.4,4,4
		c0,2.8,0,5.6,0,8.5c0,2.5-1.4,3.9-3.9,3.9c-7.6,0-15.2,0-22.8,0c-0.9,0-1.8-0.2-2.5-0.8C4.6,23.9,4.2,23.2,3.9,22.4z M26.2,11.2
		c-3.2,0-5.9,2.7-5.9,5.9S23,23,26.2,23s5.9-2.7,5.9-5.9C32.2,13.9,29.5,11.2,26.2,11.2z M12.2,14.7c-1.3,0-2.6,0-3.8,0
		c-0.4,0-0.9,0-0.9,0.6c0,0.5,0.4,0.6,0.8,0.6c2.6,0,5.1,0,7.7,0c0.4,0,0.8-0.1,0.8-0.6s-0.4-0.6-0.8-0.6
		C14.7,14.7,13.5,14.7,12.2,14.7z M12.2,18.2c1.3,0,2.6,0,3.9,0c0.4,0,0.8-0.1,0.8-0.6s-0.4-0.5-0.8-0.5c-1.1,0-2.2,0-3.3,0
		c-1.5,0-3,0-4.5,0c-0.6,0-0.9,0.5-0.6,0.8c0.2,0.2,0.5,0.3,0.8,0.3C9.6,18.3,10.9,18.2,12.2,18.2z M12.1,20.6c1.3,0,2.7,0,4,0
		c0.4,0,0.7-0.1,0.7-0.5s-0.3-0.6-0.6-0.6c-2.7,0-5.3,0-8,0c-0.4,0-0.7,0.2-0.7,0.6c0,0.5,0.4,0.6,0.7,0.6
		C9.5,20.6,10.8,20.6,12.1,20.6z"/>
	<path class="st0" d="M7.5,26.5c1.6,0,3.1,0,4.6,0c0,0.5,0.1,0.9,0,1.4c-0.1,0.6-0.6,0.9-1.1,0.9c-0.8,0-1.5,0-2.3,0
		c-0.7,0-1.2-0.5-1.2-1.2C7.4,27.2,7.5,26.9,7.5,26.5z"/>
	<path class="st0" d="M26.3,26.5c1.6,0,3.1,0,4.6,0c0,0.5,0.1,0.9,0,1.4c-0.1,0.6-0.5,0.9-1.1,0.9c-0.7,0-1.5,0-2.2,0
		c-0.8,0-1.3-0.5-1.3-1.3C26.3,27.1,26.3,26.8,26.3,26.5z"/>
	<path class="st0" d="M23,17.1c0-1.8,1.5-3.3,3.3-3.3s3.3,1.5,3.3,3.3s-1.5,3.3-3.3,3.3C24.4,20.3,23,18.9,23,17.1z"/>
</g>
</svg>
