<?xml version="1.0" encoding="utf-8"?>
<!-- Generator: Adobe Illustrator 21.1.0, SVG Export Plug-In . SVG Version: 6.00 Build 0)  -->
<svg version="1.1" id="Layer_1" xmlns="http://www.w3.org/2000/svg" xmlns:xlink="http://www.w3.org/1999/xlink" x="0px" y="0px"
	 viewBox="0 0 37 37" style="enable-background:new 0 0 37 37;" xml:space="preserve">
<style type="text/css">
	.st0{fill:#DA3F7B;}
</style>
<g>
	<path class="st0" d="M28.9,34.8c-0.2,0-0.3,0-0.5,0c-0.2-0.3-0.4-0.6-0.5-0.9c-0.6-2-1.3-3.9-1.9-5.9c-0.1-0.5-0.3-0.6-0.8-0.6
		c-4.6,0-9.3,0-13.9,0c-0.5,0-0.7,0.1-0.8,0.6c-0.6,2-1.2,3.9-1.8,5.9c-0.1,0.3-0.3,0.6-0.5,0.9c-0.2,0-0.4,0-0.6,0
		c0-0.4-0.2-0.9-0.1-1.3c0.9-3.1,1.9-6.2,2.9-9.3c0.1-0.2,0.1-0.5,0.2-0.8c-2.1,0-4.1,0-6.1,0c-1.1,0-1.2-0.1-1.2-1.2
		c0-5.4,0-10.8,0-16.3c0-1.2,0.1-1.3,1.3-1.3c4.2,0,8.3,0,12.5,0c0.3,0,0.6,0,0.8,0c0.2-0.8,0.4-1.4,0.5-2c0.2,0,0.4,0,0.6,0
		c0.2,0.6,0.3,1.3,0.5,2c0.3,0,0.6,0,0.9,0c4.2,0,8.4,0,12.6,0c0.7,0,1.1,0.1,1.1,1c0,5.6,0,11.3,0,16.9c0,0.7-0.3,0.9-1,0.9
		c-2.1,0-4.1,0-6.2,0c-0.3,0-0.5,0-0.8,0c0.1,0.3,0.2,0.5,0.2,0.8c1,3.1,1.9,6.2,2.9,9.3C29.3,33.9,29.5,34.4,28.9,34.8z M4.6,6
		c0,5.4,0,10.7,0,16c9.4,0,18.7,0,28.1,0c0-5.4,0-10.7,0-16C23.3,6,13.9,6,4.6,6z M11.1,26c4.8,0,9.5,0,14.3,0
		c-0.2-0.7-0.5-1.4-0.6-2.1c-0.1-0.5-0.4-0.6-0.8-0.6c-3.9,0-7.7,0-11.6,0c-0.2,0-0.3,0-0.5,0.1C11.6,24.3,11.4,25.1,11.1,26z"/>
	<path class="st0" d="M28.3,21.3c-0.5,0-1.1,0.1-1.6,0c-0.3-0.1-0.5-0.4-0.7-0.7c0.3-0.2,0.5-0.6,0.8-0.6c1-0.1,2.1-0.1,3.1,0
		c0.3,0,0.5,0.4,0.8,0.6c-0.3,0.2-0.5,0.6-0.8,0.7C29.4,21.4,28.9,21.3,28.3,21.3L28.3,21.3z"/>
</g>
</svg>
