<?xml version="1.0" encoding="utf-8"?>
<!-- Generator: Adobe Illustrator 19.2.1, SVG Export Plug-In . SVG Version: 6.00 Build 0)  -->
<svg version="1.1" id="Layer_1" xmlns="http://www.w3.org/2000/svg" xmlns:xlink="http://www.w3.org/1999/xlink" x="0px" y="0px"
	 viewBox="0 0 123.8 122.8" style="enable-background:new 0 0 123.8 122.8;" xml:space="preserve">
<style type="text/css">
	.st0{fill:#FFFFFF;}
</style>
<g>
	<path class="st0" d="M103.3,61.4c0,11.4,0,22.8,0,34.2c0,4.4-2.6,7-7.1,7c-22.9,0-45.8,0-68.7,0c-4.4,0-7.4-2.9-7.4-7.3
		c0-22.8,0-45.6,0-68.4c0-4.3,3.3-7.6,7.7-7.6c22.7,0,45.3,0,68,0c4.8,0,7.6,2.9,7.6,7.8C103.3,38.6,103.3,50,103.3,61.4z
		 M61.7,26.2c-10.2,0-20.4,0.1-30.6,0c-3,0-4.3,0.8-4.2,4c0.1,20.6,0.1,41.2,0,61.9c0,3,1,4,4,4c20.6-0.1,41.2-0.1,61.9,0
		c3.2,0,4.1-1.2,4.1-4.3c-0.1-20.5-0.1-41,0-61.5c0-3.2-1.1-4.2-4.2-4.1C82.3,26.3,72,26.2,61.7,26.2z"/>
	<path class="st0" d="M61.7,81.9c-4.3,0-8.6,0.1-12.9,0c-4.8-0.1-7.6-2.8-7.7-7.6c-0.1-8.7-0.1-17.5,0-26.2c0.1-4.7,3-7.6,7.7-7.7
		c8.7-0.1,17.5-0.1,26.2,0c5,0.1,7.6,3,7.7,8c0,8.5,0,17,0,25.5c0,5.2-2.8,7.9-8,8C70.3,82,66,81.9,61.7,81.9z"/>
</g>
</svg>
