<?xml version="1.0" encoding="iso-8859-1"?>
<!-- Generator: Adobe Illustrator 18.0.0, SVG Export Plug-In . SVG Version: 6.00 Build 0)  -->
<!DOCTYPE svg PUBLIC "-//W3C//DTD SVG 1.1//EN" "http://www.w3.org/Graphics/SVG/1.1/DTD/svg11.dtd">
<svg xmlns="http://www.w3.org/2000/svg" xmlns:xlink="http://www.w3.org/1999/xlink" version="1.1" id="Capa_1" x="0px" y="0px" viewBox="0 0 454.231 454.231" style="enable-background:new 0 0 454.231 454.231;" xml:space="preserve" width="512px" height="512px">
<g id="XMLID_5_">
	<circle id="XMLID_451_" cx="72.623" cy="92.114" r="32.054" fill="#333333"/>
	<path id="XMLID_789_" d="M269.116,372.3h-32V243.405h67.237c5.523,0,10-4.477,10-10s-4.477-10-10-10c-3.887,0-124.896,0-128.155,0   c6.442-1.815,10.977-7.923,10.544-14.874c-0.499-8.005-7.401-14.109-15.397-13.591l-1.546,0.096   c-4.503-14.026-8.099-25.226-12.712-39.594c-1.52-4.733-6.589-7.339-11.32-5.818c-4.733,1.52-7.338,6.588-5.818,11.32   c9.43,29.373,5.469,17.035,11.316,35.248l-30.058,1.874l-28.453-37.523l22.731,17.763l-1.272-19.175   c-0.792-11.932-11.107-20.964-23.039-20.172l-38.53,2.556c-11.932,0.792-20.964,11.107-20.172,23.039   c7.118,107.281,6.723,104.159,6.723,104.159c0.003,0.03,0.002,0.059,0.005,0.089c0.627,6.02,4.395,11.729,11.012,14.454H22.078   V173.291c0-6.097-4.942-11.039-11.039-11.039S0,167.195,0,173.291c0,14.516,0,199.047,0,211.18c0,6.097,4.942,11.039,11.039,11.039   s11.039-4.942,11.039-11.039v-35.05h43.8l20.034-22.078H22.078v-22.011c11.153,0,73.702,0,81.741,0l15.12,6.227l-49.936,55.029   c-6.467,7.127-5.933,18.149,1.195,24.617c7.139,6.477,18.158,5.922,24.617-1.195l66.609-73.405   c3.815-4.204,5.343-10.003,4.095-15.542c-1.248-5.538-5.115-10.121-10.364-12.283L87.09,260.749   c8.378,1.739,62.142,12.901,73.339,15.226c3.286,0.682,6.316,1.919,9.011,3.592l-3.88-16.536   c-1.848-7.877-8.875-13.445-16.966-13.445h-28.379l-0.516-7.775c-3.994,0.249-2.111,0.132-9.622,0.6   c-8.381,0.522-15.845-4.466-18.881-11.818l-21.585-52.502l33.157,43.727c2.755,3.634,7.044,5.748,11.57,5.748   c0.737,0-1.12,0.098,30.841-1.894c-2.235,1.834-3.661,4.616-3.661,7.733c0,5.494,4.481,10,10,10h65.598V372.3h-25.915l-12.789-54.5   c-1.7,2.747-2.863,3.856-6.731,8.113l-21.584,23.786l7.646,32.583c2.198,9.368,11.573,15.183,20.947,12.985   c2.528-0.593,4.785-1.723,6.708-3.22c0.712,0.161,1.45,0.253,2.21,0.253h81.508c5.523,0,10-4.477,10-10   S274.639,372.3,269.116,372.3z" fill="#333333"/>
	<circle id="XMLID_791_" cx="381.608" cy="90.555" r="32.054" fill="#333333"/>
	<path id="XMLID_793_" d="M443.192,158.693c-6.097,0-11.039,4.942-11.039,11.039v109.964h-18.068l7.685-116.712   c0.785-11.929-8.245-22.237-20.173-23.029l-38.54-2.557c-10.53-0.699-19.796,6.255-22.374,16.099l31.42-5.659l-42.667,19.927   l-42.896-26.144c-6.849-4.174-15.785-2.006-19.959,4.843c-4.174,6.849-2.006,15.785,4.843,19.959l49.544,30.196   c4.161,2.535,9.304,2.812,13.703,0.757l49.72-23.22c-47.392,39.565-44.657,37.648-48.072,39.167l-3.159,47.61l36.103,3.977   l-73.396,5.608c-5.661,0.433-10.756,3.595-13.655,8.476s-3.239,10.868-0.912,16.046l40.643,90.406   c3.951,8.789,14.273,12.691,23.04,8.749c8.778-3.946,12.695-14.262,8.749-23.04l-30.469-67.775   c27.396-2.093,3.489-1.605,108.89-1.605v21.398h-71.561v-20.469l-20.03,5.377c9.631,21.423,13.653,30.369,20.03,44.555v-7.384   h71.561v36.878c0,6.097,4.942,11.039,11.039,11.039s11.039-4.942,11.039-11.039c0-93.964,0-82.866,0-212.396   C454.231,163.635,449.289,158.693,443.192,158.693z" fill="#333333"/>
</g>
<g>
</g>
<g>
</g>
<g>
</g>
<g>
</g>
<g>
</g>
<g>
</g>
<g>
</g>
<g>
</g>
<g>
</g>
<g>
</g>
<g>
</g>
<g>
</g>
<g>
</g>
<g>
</g>
<g>
</g>
</svg>
